<svg width="129" height="129" viewBox="0 0 129 129" fill="none" xmlns="http://www.w3.org/2000/svg">
<path d="M16.125 51.0625H32.25M75.25 94.0625C81.6649 94.0625 87.8171 91.5142 92.3531 86.9781C96.8892 82.4421 99.4375 76.2899 99.4375 69.875C99.4375 63.4601 96.8892 57.3079 92.3531 52.7719C87.8171 48.2358 81.6649 45.6875 75.25 45.6875C68.8351 45.6875 62.6829 48.2358 58.1469 52.7719C53.6108 57.3079 51.0625 63.4601 51.0625 69.875C51.0625 76.2899 53.6108 82.4421 58.1469 86.9781C62.6829 91.5142 68.8351 94.0625 75.25 94.0625ZM126.312 34.9375H110.188C105.911 34.9375 101.809 33.2386 98.7854 30.2146C95.7614 27.1906 94.0625 23.0891 94.0625 18.8125H56.4375C56.4375 23.0891 54.7386 27.1906 51.7146 30.2146C48.6906 33.2386 44.5891 34.9375 40.3125 34.9375H2.6875V110.188H110.188C114.464 110.187 118.566 108.489 121.59 105.465C124.614 102.441 126.312 98.3391 126.312 94.0625V34.9375Z" stroke="black"/>
</svg>
