<svg width="59" height="59" viewBox="0 0 59 59" fill="none" xmlns="http://www.w3.org/2000/svg">
<path d="M7.375 29.5C7.375 32.4055 7.94728 35.2825 9.05917 37.9669C10.1711 40.6512 11.8008 43.0902 13.8553 45.1447C15.9098 47.1992 18.3488 48.8289 21.0331 49.9408C23.7175 51.0527 26.5945 51.625 29.5 51.625C32.4055 51.625 35.2825 51.0527 37.9669 49.9408C40.6512 48.8289 43.0902 47.1992 45.1447 45.1447C47.1992 43.0902 48.829 40.6512 49.9408 37.9669C51.0527 35.2825 51.625 32.4055 51.625 29.5C51.625 23.6321 49.294 18.0045 45.1447 13.8553C40.9955 9.70602 35.3679 7.375 29.5 7.375C23.6321 7.375 18.0045 9.70602 13.8553 13.8553C9.70602 18.0045 7.375 23.6321 7.375 29.5Z" stroke="black" stroke-width="5" stroke-linecap="round" stroke-linejoin="round"/>
<path d="M29.5 17.208V29.4997L36.875 36.8747" stroke="black" stroke-width="5" stroke-linecap="round" stroke-linejoin="round"/>
</svg>
