<svg width="12" height="8" viewBox="0 0 12 8" fill="none" xmlns="http://www.w3.org/2000/svg">
<path d="M5.89966 0.25C5.98564 0.250001 6.06696 0.269322 6.13403 0.301758C6.16765 0.318022 6.19621 0.335885 6.21899 0.355469L6.27173 0.416016L7.52661 2.3916L7.59009 2.49219L7.70923 2.50586L10.5149 2.82324C10.5995 2.83279 10.6746 2.8601 10.7317 2.89746C10.7887 2.93485 10.8216 2.97828 10.8372 3.01562C10.852 3.05114 10.8537 3.08596 10.843 3.12012C10.8373 3.13797 10.8273 3.15789 10.8127 3.17773L10.7522 3.2373V3.23828L8.72192 4.77637L8.59399 4.87305L8.62817 5.0293L9.10864 7.20215C9.11586 7.23526 9.11141 7.27057 9.09204 7.30762C9.07176 7.34636 9.03327 7.38961 8.97095 7.4248C8.90868 7.45995 8.82998 7.4825 8.74438 7.4873C8.70183 7.48968 8.65974 7.48797 8.61938 7.48145L8.50415 7.44922L5.99536 6.42383L5.90063 6.38477L5.80591 6.42383L3.29517 7.44922C3.22382 7.47823 3.14029 7.49215 3.05493 7.4873C2.96933 7.48244 2.89058 7.45901 2.82837 7.42383C2.76637 7.38867 2.72746 7.34624 2.70728 7.30762C2.69755 7.289 2.69215 7.27065 2.6897 7.25293L2.69165 7.20117L3.17114 5.0293L3.20532 4.87305L3.07739 4.77637L1.04712 3.23828V3.2373C0.995666 3.19833 0.967698 3.15597 0.956299 3.12012C0.945567 3.08596 0.947353 3.05114 0.962158 3.01562C0.977757 2.97828 1.01058 2.93485 1.06763 2.89746C1.09606 2.87886 1.12909 2.86326 1.16528 2.85059L1.28442 2.82324L4.09009 2.50684L4.20923 2.49316L4.27271 2.39258L5.52759 0.416016C5.55288 0.376117 5.59811 0.334255 5.66528 0.301758C5.73236 0.269322 5.81368 0.25 5.89966 0.25Z" fill="white" stroke="#A1A1A1" stroke-width="0.5"/>
</svg>
