<svg width="46" height="47" viewBox="0 0 46 47" fill="none" xmlns="http://www.w3.org/2000/svg">
<path d="M27.1106 6.47815C24.7687 6.47815 22.5228 7.40846 20.8668 9.06441C19.2109 10.7204 18.2806 12.9663 18.2806 15.3082V20.2244H13.5553C13.3186 20.2244 13.1257 20.4153 13.1257 20.654V27.1452C13.1257 27.382 13.3167 27.5748 13.5553 27.5748H18.2806V40.8915C18.2806 41.1282 18.4715 41.321 18.7101 41.321H25.2014C25.4382 41.321 25.631 41.1301 25.631 40.8915V27.5748H30.3983C30.5949 27.5748 30.7667 27.4412 30.8145 27.2502L32.4373 20.759C32.4533 20.6956 32.4546 20.6295 32.4411 20.5655C32.4277 20.5016 32.3998 20.4416 32.3597 20.3901C32.3196 20.3385 32.2682 20.2968 32.2095 20.2681C32.1509 20.2394 32.0864 20.2244 32.0211 20.2244H25.631V15.3082C25.631 15.1139 25.6693 14.9215 25.7436 14.742C25.818 14.5625 25.927 14.3993 26.0644 14.2619C26.2018 14.1245 26.3649 14.0156 26.5444 13.9412C26.7239 13.8668 26.9163 13.8286 27.1106 13.8286H32.0745C32.3113 13.8286 32.5041 13.6376 32.5041 13.399V6.90772C32.5041 6.67098 32.3132 6.47815 32.0745 6.47815H27.1106Z" fill="white"/>
</svg>
