<svg width="46" height="61" viewBox="0 0 46 61" fill="none" xmlns="http://www.w3.org/2000/svg">
<path d="M8.04407 24.6658C5.3205 27.7132 3.60733 31.507 3.13388 35.5395C2.66044 39.5719 3.44931 43.6505 5.39491 47.2294C7.34051 50.8082 10.35 53.7164 14.0205 55.5648C17.691 57.4132 21.8473 58.1134 25.9331 57.5719C30.0189 57.0303 33.8393 55.2728 36.8827 52.5345C39.9261 49.7962 42.0474 46.2079 42.9626 42.2499C43.8777 38.2919 43.5431 34.1531 42.0036 30.3874C40.464 26.6218 37.7929 23.4091 34.3479 21.1794C33.6734 27.3222 29.9639 31.2237 23.2193 32.8839C28.2778 22.9226 26.5916 12.9613 18.1609 3C18.1609 11.3011 14.7886 18.523 8.04407 24.6658Z" stroke="black" stroke-width="5" stroke-linecap="round" stroke-linejoin="round"/>
</svg>
