<svg width="69" height="69" viewBox="0 0 69 69" fill="none" xmlns="http://www.w3.org/2000/svg">
<path d="M28.75 40.25H25.875M28.75 17.25H25.875" stroke="black" stroke-width="1.5" stroke-linecap="round" stroke-linejoin="round"/>
<path d="M14.375 28.75V7.475C14.375 7.0175 14.5567 6.57874 14.8802 6.25524C15.2037 5.93174 15.6425 5.75 16.1 5.75H52.9C53.3575 5.75 53.7963 5.93174 54.1198 6.25524C54.4433 6.57874 54.625 7.0175 54.625 7.475V28.75M14.375 28.75V61.525C14.375 61.7515 14.4196 61.9758 14.5063 62.1851C14.593 62.3944 14.7201 62.5846 14.8802 62.7448C15.0404 62.9049 15.2306 63.032 15.4399 63.1187C15.6492 63.2054 15.8735 63.25 16.1 63.25H52.9C53.1265 63.25 53.3508 63.2054 53.5601 63.1187C53.7694 63.032 53.9596 62.9049 54.1198 62.7448C54.2799 62.5846 54.407 62.3944 54.4937 62.1851C54.5804 61.9758 54.625 61.7515 54.625 61.525V28.75M14.375 28.75H54.625" stroke="black" stroke-width="3"/>
</svg>
