<svg width="41" height="41" viewBox="0 0 41 41" fill="none" xmlns="http://www.w3.org/2000/svg">
<circle cx="20.5" cy="20.5" r="20" fill="white" stroke="#797979"/>
<path d="M21 17C21 17 21 17 20.24 16C19.36 14.84 18.06 14 16.5 14C14.01 14 12 16.01 12 18.5C12 19.43 12.28 20.29 12.76 21C13.57 22.21 21 30 21 30M21 17C21 17 21 17 21.76 16C22.64 14.84 23.94 14 25.5 14C27.99 14 30 16.01 30 18.5C30 19.43 29.72 20.29 29.24 21C28.43 22.21 21 30 21 30" stroke="#797979" stroke-width="2" stroke-linecap="round" stroke-linejoin="round"/>
</svg>
