<svg width="36" height="36" viewBox="0 0 36 36" fill="none" xmlns="http://www.w3.org/2000/svg">
<path d="M10.9822 0.727539H25.6988C31.3051 0.727539 35.8602 5.28266 35.8602 10.889V25.6055C35.8602 28.3005 34.7896 30.8851 32.884 32.7907C30.9784 34.6964 28.3938 35.767 25.6988 35.767H10.9822C5.37593 35.767 0.820801 31.2118 0.820801 25.6055V10.889C0.820801 8.19399 1.89138 5.60939 3.79702 3.70375C5.70265 1.79812 8.28725 0.727539 10.9822 0.727539ZM10.6318 4.23148C8.95909 4.23148 7.35486 4.89598 6.17205 6.07879C4.98924 7.2616 4.32474 8.86583 4.32474 10.5386V25.9559C4.32474 29.4423 7.14542 32.263 10.6318 32.263H26.0492C27.7219 32.263 29.3262 31.5985 30.509 30.4157C31.6918 29.2329 32.3563 27.6287 32.3563 25.9559V10.5386C32.3563 7.05216 29.5356 4.23148 26.0492 4.23148H10.6318ZM27.5384 6.85944C28.1192 6.85944 28.6762 7.09017 29.0869 7.50086C29.4976 7.91156 29.7283 8.46859 29.7283 9.0494C29.7283 9.63022 29.4976 10.1872 29.0869 10.5979C28.6762 11.0086 28.1192 11.2394 27.5384 11.2394C26.9575 11.2394 26.4005 11.0086 25.9898 10.5979C25.5791 10.1872 25.3484 9.63022 25.3484 9.0494C25.3484 8.46859 25.5791 7.91156 25.9898 7.50086C26.4005 7.09017 26.9575 6.85944 27.5384 6.85944ZM18.3405 9.4874C20.6638 9.4874 22.8919 10.4103 24.5347 12.0531C26.1775 13.6959 27.1004 15.924 27.1004 18.2473C27.1004 20.5705 26.1775 22.7986 24.5347 24.4414C22.8919 26.0842 20.6638 27.0071 18.3405 27.0071C16.0173 27.0071 13.7892 26.0842 12.1464 24.4414C10.5036 22.7986 9.58066 20.5705 9.58066 18.2473C9.58066 15.924 10.5036 13.6959 12.1464 12.0531C13.7892 10.4103 16.0173 9.4874 18.3405 9.4874ZM18.3405 12.9913C16.9466 12.9913 15.6097 13.5451 14.624 14.5308C13.6383 15.5164 13.0846 16.8533 13.0846 18.2473C13.0846 19.6412 13.6383 20.9781 14.624 21.9637C15.6097 22.9494 16.9466 23.5032 18.3405 23.5032C19.7345 23.5032 21.0713 22.9494 22.057 21.9637C23.0427 20.9781 23.5964 19.6412 23.5964 18.2473C23.5964 16.8533 23.0427 15.5164 22.057 14.5308C21.0713 13.5451 19.7345 12.9913 18.3405 12.9913Z" fill="white"/>
</svg>
