<svg width="75" height="87" viewBox="0 0 75 87" fill="none" xmlns="http://www.w3.org/2000/svg">
<path d="M32.7959 47.8519V34M41.7755 47.8519V34M4.22449 78H62.1837M3 72.2963H63" stroke="black" stroke-width="3"/>
<path d="M72 64.2753V35.3714C72 19.641 72 11.7737 67.1741 6.88891C62.3482 2.00417 54.5865 2 39.0588 2H34.9412C19.4135 2 11.6476 2 6.82588 6.88891C2.00412 11.7778 2 19.641 2 35.3714V75" stroke="black" stroke-width="3" stroke-linecap="round" stroke-linejoin="round"/>
<path d="M73 64H13.2941C10.5639 64 7.9456 65.1062 6.01508 67.0754C4.08456 69.0445 3 71.7152 3 74.5C3 77.2848 4.08456 79.9555 6.01508 81.9246C7.9456 83.8938 10.5639 85 13.2941 85H73" stroke="black" stroke-width="3" stroke-linecap="round" stroke-linejoin="round"/>
<path d="M72 85C69.2987 85 66.7081 83.9145 64.798 81.9823C62.8879 80.0501 61.8148 77.4295 61.8148 74.697C61.8148 71.9644 62.8879 69.3438 64.798 67.4116C66.7081 65.4794 69.2987 64.3939 72 64.3939M45.0622 22.5636C46.3981 21.6446 47.9771 21.1548 49.5926 21.1583C54.0944 21.1583 57.7407 24.8798 57.7407 29.4708C57.7407 33.9918 54.0578 37.7709 49.5926 37.7709V41.7273C49.5926 45.6136 49.5926 47.5547 48.3989 48.7622C47.2052 49.9697 45.2863 49.9697 41.4444 49.9697H33.2963C29.4544 49.9697 27.5356 49.9697 26.3419 48.7622C25.1481 47.5547 25.1481 45.6136 25.1481 41.7273V38.2861C20.3896 38.2861 17 34.7006 17 29.4708C17 24.8798 20.6463 21.1583 25.1481 21.1583C26.8267 21.1583 28.383 21.6735 29.6785 22.5595C30.23 20.9389 31.2673 19.5324 32.6459 18.536C34.0246 17.5396 35.676 17.0026 37.3704 17C40.923 17 43.9459 19.3202 45.0622 22.5636ZM45.0622 22.5636C45.361 23.4263 45.5131 24.344 45.5185 25.3166" stroke="black" stroke-width="3" stroke-linecap="round" stroke-linejoin="round"/>
</svg>
