<svg width="43" height="56" viewBox="0 0 43 56" fill="none" xmlns="http://www.w3.org/2000/svg">
<mask id="path-1-inside-1_542_800" fill="white">
<path d="M37.7406 20.9573C38.9929 20.9573 39.9604 22.0759 39.6299 23.2863C39.2167 24.7827 38.6209 26.2222 37.8561 27.5723C37.238 28.664 35.7679 28.7664 34.8811 27.8796C34.1823 27.176 34.0936 26.0762 34.5586 25.1974C34.992 24.3755 35.3475 23.5145 35.6201 22.6258C35.9131 21.6743 36.7462 20.9573 37.7406 20.9573ZM37.7433 15.5661C38.9956 15.5661 39.9631 14.4501 39.6326 13.2398C39.2194 11.7434 38.6236 10.3038 37.8588 8.95379C37.2407 7.86207 35.7679 7.75964 34.8838 8.64649C34.1823 9.35004 34.0963 10.4498 34.5613 11.3286C34.993 12.1445 35.3469 13.0017 35.6228 13.9002C35.9158 14.8517 36.7489 15.5661 37.7433 15.5661ZM24.1848 1.96411C24.1848 0.707964 25.2974 -0.26245 26.5041 0.0691086C27.997 0.483324 29.4331 1.08088 30.7799 1.8482C31.8684 2.46819 31.9705 3.94537 31.0863 4.83492C30.3876 5.53577 29.2884 5.62473 28.4123 5.15839C27.592 4.72253 26.7327 4.36514 25.8457 4.09094C24.897 3.79712 24.1848 2.95879 24.1848 1.96142M18.8098 1.96142C18.8098 2.95609 18.0949 3.79442 17.1436 4.08824C16.2585 4.36189 15.401 4.71838 14.5824 5.153C13.7063 5.61934 12.6098 5.53038 11.9083 4.82953C11.0214 3.93998 11.1262 2.4628 12.2147 1.84281C13.5608 1.07662 14.996 0.479982 16.4878 0.0664129C17.6972 -0.267841 18.8098 0.705269 18.8098 1.96142ZM5.12237 8.9484C5.7405 7.85668 7.21325 7.75425 8.10013 8.6438C8.79887 9.34465 8.88756 10.4445 8.42262 11.3259C7.98904 12.1418 7.63429 12.9999 7.35838 13.9002C7.06544 14.8517 6.22962 15.5661 5.23525 15.5661C3.98556 15.5661 3.01537 14.4501 3.34862 13.2398C3.76139 11.7415 4.35715 10.3001 5.12237 8.9484ZM5.24062 20.9573C3.98825 20.9573 3.01806 22.0759 3.35131 23.2863C3.76407 24.7845 4.35984 26.2259 5.12506 27.5777C5.74319 28.6667 7.21594 28.7691 8.10281 27.8823C8.80156 27.1814 8.89025 26.0789 8.42531 25.2001C7.98984 24.3776 7.63262 23.5156 7.35838 22.6258C7.07081 21.6743 6.23231 20.9573 5.24062 20.9573ZM36.9531 34.4352C38.5564 34.4352 40.094 35.0739 41.228 36.2107C42.3619 37.3476 42.9993 38.8895 43 40.4976V42.0476C43 44.4602 42.14 46.7918 40.5759 48.6222C36.3565 53.5632 29.9441 56 21.4893 56C13.0371 56 6.622 53.5605 2.41337 48.6141C0.856259 46.7847 0.000556982 44.4584 0 42.053V40.4949C0.00142414 38.8878 0.638763 37.3469 1.77204 36.2107C2.90531 35.0745 4.44185 34.436 6.04419 34.4352H36.9531ZM36.9531 38.4786H6.04688C5.51276 38.4786 5.00049 38.6913 4.62256 39.0698C4.24464 39.4484 4.03196 39.9619 4.03125 40.4976V42.0557C4.03125 43.4978 4.54725 44.8941 5.4825 45.9913C8.84994 49.9484 14.1363 51.9593 21.4919 51.9593C28.853 51.9593 34.1393 49.9484 37.5175 45.9913C38.4545 44.8923 38.9692 43.4936 38.9688 42.0476V40.4976C38.968 39.9628 38.7561 39.4501 38.3793 39.0717C38.0026 38.6933 37.4917 38.4801 36.9585 38.4786M14.7705 18.2617C14.7705 16.4744 15.4784 14.7603 16.7384 13.4965C17.9984 12.2327 19.7073 11.5227 21.4893 11.5227C23.2712 11.5227 24.9801 12.2327 26.2401 13.4965C27.5001 14.7603 28.208 16.4744 28.208 18.2617C28.208 20.049 27.5001 21.7631 26.2401 23.0269C24.9801 24.2907 23.2712 25.0007 21.4893 25.0007C19.7073 25.0007 17.9984 24.2907 16.7384 23.0269C15.4784 21.7631 14.7705 20.049 14.7705 18.2617ZM21.4893 7.4793C18.6382 7.4793 15.9039 8.61529 13.8879 10.6374C11.8718 12.6595 10.7392 15.402 10.7392 18.2617C10.7392 21.1213 11.8718 23.8639 13.8879 25.886C15.9039 27.9081 18.6382 29.0441 21.4893 29.0441C24.3403 29.0441 27.0746 27.9081 29.0906 25.886C31.1067 23.8639 32.2393 21.1213 32.2393 18.2617C32.2393 15.402 31.1067 12.6595 29.0906 10.6374C27.0746 8.61529 24.3403 7.4793 21.4893 7.4793Z"/>
</mask>
<path d="M37.7406 20.9573C38.9929 20.9573 39.9604 22.0759 39.6299 23.2863C39.2167 24.7827 38.6209 26.2222 37.8561 27.5723C37.238 28.664 35.7679 28.7664 34.8811 27.8796C34.1823 27.176 34.0936 26.0762 34.5586 25.1974C34.992 24.3755 35.3475 23.5145 35.6201 22.6258C35.9131 21.6743 36.7462 20.9573 37.7406 20.9573ZM37.7433 15.5661C38.9956 15.5661 39.9631 14.4501 39.6326 13.2398C39.2194 11.7434 38.6236 10.3038 37.8588 8.95379C37.2407 7.86207 35.7679 7.75964 34.8838 8.64649C34.1823 9.35004 34.0963 10.4498 34.5613 11.3286C34.993 12.1445 35.3469 13.0017 35.6228 13.9002C35.9158 14.8517 36.7489 15.5661 37.7433 15.5661ZM24.1848 1.96411C24.1848 0.707964 25.2974 -0.26245 26.5041 0.0691086C27.997 0.483324 29.4331 1.08088 30.7799 1.8482C31.8684 2.46819 31.9705 3.94537 31.0863 4.83492C30.3876 5.53577 29.2884 5.62473 28.4123 5.15839C27.592 4.72253 26.7327 4.36514 25.8457 4.09094C24.897 3.79712 24.1848 2.95879 24.1848 1.96142M18.8098 1.96142C18.8098 2.95609 18.0949 3.79442 17.1436 4.08824C16.2585 4.36189 15.401 4.71838 14.5824 5.153C13.7063 5.61934 12.6098 5.53038 11.9083 4.82953C11.0214 3.93998 11.1262 2.4628 12.2147 1.84281C13.5608 1.07662 14.996 0.479982 16.4878 0.0664129C17.6972 -0.267841 18.8098 0.705269 18.8098 1.96142ZM5.12237 8.9484C5.7405 7.85668 7.21325 7.75425 8.10013 8.6438C8.79887 9.34465 8.88756 10.4445 8.42262 11.3259C7.98904 12.1418 7.63429 12.9999 7.35838 13.9002C7.06544 14.8517 6.22962 15.5661 5.23525 15.5661C3.98556 15.5661 3.01537 14.4501 3.34862 13.2398C3.76139 11.7415 4.35715 10.3001 5.12237 8.9484ZM5.24062 20.9573C3.98825 20.9573 3.01806 22.0759 3.35131 23.2863C3.76407 24.7845 4.35984 26.2259 5.12506 27.5777C5.74319 28.6667 7.21594 28.7691 8.10281 27.8823C8.80156 27.1814 8.89025 26.0789 8.42531 25.2001C7.98984 24.3776 7.63262 23.5156 7.35838 22.6258C7.07081 21.6743 6.23231 20.9573 5.24062 20.9573ZM36.9531 34.4352C38.5564 34.4352 40.094 35.0739 41.228 36.2107C42.3619 37.3476 42.9993 38.8895 43 40.4976V42.0476C43 44.4602 42.14 46.7918 40.5759 48.6222C36.3565 53.5632 29.9441 56 21.4893 56C13.0371 56 6.622 53.5605 2.41337 48.6141C0.856259 46.7847 0.000556982 44.4584 0 42.053V40.4949C0.00142414 38.8878 0.638763 37.3469 1.77204 36.2107C2.90531 35.0745 4.44185 34.436 6.04419 34.4352H36.9531ZM36.9531 38.4786H6.04688C5.51276 38.4786 5.00049 38.6913 4.62256 39.0698C4.24464 39.4484 4.03196 39.9619 4.03125 40.4976V42.0557C4.03125 43.4978 4.54725 44.8941 5.4825 45.9913C8.84994 49.9484 14.1363 51.9593 21.4919 51.9593C28.853 51.9593 34.1393 49.9484 37.5175 45.9913C38.4545 44.8923 38.9692 43.4936 38.9688 42.0476V40.4976C38.968 39.9628 38.7561 39.4501 38.3793 39.0717C38.0026 38.6933 37.4917 38.4801 36.9585 38.4786M14.7705 18.2617C14.7705 16.4744 15.4784 14.7603 16.7384 13.4965C17.9984 12.2327 19.7073 11.5227 21.4893 11.5227C23.2712 11.5227 24.9801 12.2327 26.2401 13.4965C27.5001 14.7603 28.208 16.4744 28.208 18.2617C28.208 20.049 27.5001 21.7631 26.2401 23.0269C24.9801 24.2907 23.2712 25.0007 21.4893 25.0007C19.7073 25.0007 17.9984 24.2907 16.7384 23.0269C15.4784 21.7631 14.7705 20.049 14.7705 18.2617ZM21.4893 7.4793C18.6382 7.4793 15.9039 8.61529 13.8879 10.6374C11.8718 12.6595 10.7392 15.402 10.7392 18.2617C10.7392 21.1213 11.8718 23.8639 13.8879 25.886C15.9039 27.9081 18.6382 29.0441 21.4893 29.0441C24.3403 29.0441 27.0746 27.9081 29.0906 25.886C31.1067 23.8639 32.2393 21.1213 32.2393 18.2617C32.2393 15.402 31.1067 12.6595 29.0906 10.6374C27.0746 8.61529 24.3403 7.4793 21.4893 7.4793Z" fill="black"/>
<path d="M39.6299 23.2863L41.5577 23.8186L41.5592 23.8132L39.6299 23.2863ZM37.8561 27.5723L36.116 26.5864L36.1157 26.5869L37.8561 27.5723ZM34.8811 27.8796L33.462 29.2889L33.4669 29.2938L34.8811 27.8796ZM34.5586 25.1974L36.3264 26.1328L36.3276 26.1304L34.5586 25.1974ZM35.6201 22.6258L33.7087 22.0374L33.7081 22.0392L35.6201 22.6258ZM39.6326 13.2398L41.5619 12.7128L41.5604 12.7075L39.6326 13.2398ZM37.8588 8.95379L36.1184 9.93919L36.1187 9.93962L37.8588 8.95379ZM34.8838 8.64649L36.3001 10.0586L34.8838 8.64649ZM34.5613 11.3286L32.7934 12.2639L32.7936 12.2641L34.5613 11.3286ZM35.6228 13.9002L33.7109 14.4873L33.7113 14.4887L35.6228 13.9002ZM26.5041 0.0691086L27.0389 -1.85809L27.034 -1.85942L26.5041 0.0691086ZM30.7799 1.8482L29.7899 3.58596L29.79 3.58605L30.7799 1.8482ZM31.0863 4.83492L32.5027 6.24701L32.5048 6.24485L31.0863 4.83492ZM28.4123 5.15839L29.352 3.39291L29.3508 3.39227L28.4123 5.15839ZM25.8457 4.09094L25.254 6.00141L25.255 6.00173L25.8457 4.09094ZM17.1436 4.08824L16.5534 2.1773L16.5528 2.17748L17.1436 4.08824ZM14.5824 5.153L13.6445 3.38654L13.6427 3.38752L14.5824 5.153ZM11.9083 4.82953L10.492 6.24162L10.4947 6.24433L11.9083 4.82953ZM12.2147 1.84281L11.2253 0.10465L11.2248 0.104965L12.2147 1.84281ZM16.4878 0.0664129L15.955 -1.86131L15.9535 -1.8609L16.4878 0.0664129ZM5.12237 8.9484L3.38198 7.96299L3.38191 7.9631L5.12237 8.9484ZM8.10013 8.6438L6.68379 10.0559L6.68379 10.0559L8.10013 8.6438ZM8.42262 11.3259L10.1887 12.2645L10.1916 12.259L8.42262 11.3259ZM7.35838 13.9002L9.26985 14.4887L9.27059 14.4862L7.35838 13.9002ZM3.34862 13.2398L1.42046 12.7086L1.42038 12.7089L3.34862 13.2398ZM3.35131 23.2863L1.42307 23.8172L1.42314 23.8175L3.35131 23.2863ZM5.12506 27.5777L3.3846 28.5629L3.38571 28.5649L5.12506 27.5777ZM8.10281 27.8823L9.51701 29.2965L9.51915 29.2943L8.10281 27.8823ZM8.42531 25.2001L10.1931 24.2648L10.1929 24.2644L8.42531 25.2001ZM7.35838 22.6258L5.44386 23.2044L5.44709 23.2149L7.35838 22.6258ZM36.9531 34.4352V36.4352V34.4352ZM43 40.4976H45V40.4967L43 40.4976ZM40.5759 48.6222L39.0554 47.3228L39.055 47.3234L40.5759 48.6222ZM2.41337 48.6141L3.93662 47.318L3.93637 47.3177L2.41337 48.6141ZM0 42.053H-2V42.0535L0 42.053ZM0 40.4949L-2 40.4932V40.4949H0ZM6.04419 34.4352V32.4352H6.0433L6.04419 34.4352ZM6.04688 38.4786L6.04687 40.4786H6.04688V38.4786ZM4.03125 40.4976L2.03125 40.495V40.4976H4.03125ZM5.4825 45.9913L7.00564 44.6951L7.00452 44.6938L5.4825 45.9913ZM37.5175 45.9913L39.0386 47.2898L39.0394 47.2888L37.5175 45.9913ZM38.9688 42.0476H36.9688V42.0482L38.9688 42.0476ZM38.9688 40.4976H40.9688L40.9688 40.495L38.9688 40.4976ZM14.7705 18.2617H12.7705H14.7705ZM28.208 18.2617H26.208H28.208ZM21.4893 7.4793V5.4793V7.4793ZM10.7392 18.2617H8.73925H10.7392ZM21.4893 29.0441V31.0441V29.0441ZM32.2393 18.2617H34.2393H32.2393ZM37.7406 20.9573V22.9573C37.764 22.9573 37.757 22.9659 37.7388 22.944C37.7284 22.9314 37.7116 22.9052 37.7019 22.8635C37.6913 22.8177 37.6954 22.7782 37.7005 22.7593L39.6299 23.2863L41.5592 23.8132C42.2827 21.1641 40.1342 18.9573 37.7406 18.9573V20.9573ZM39.6299 23.2863L37.702 22.754C37.3325 24.0922 36.7998 25.3794 36.116 26.5864L37.8561 27.5723L39.5963 28.5581C40.4421 27.0651 41.1009 25.4732 41.5577 23.8186L39.6299 23.2863ZM37.8561 27.5723L36.1157 26.5869C36.1256 26.5694 36.1517 26.5368 36.1945 26.51C36.2336 26.4856 36.2671 26.478 36.2858 26.4763C36.3192 26.4732 36.3163 26.4864 36.2953 26.4653L34.8811 27.8796L33.4669 29.2938C35.1519 30.9787 38.2349 30.9626 39.5965 28.5577L37.8561 27.5723ZM34.8811 27.8796L36.3001 26.4702C36.2972 26.4672 36.2784 26.4495 36.2717 26.388C36.2643 26.3197 36.2774 26.2254 36.3264 26.1328L34.5586 25.1974L32.7907 24.2621C31.979 25.7963 32.0571 27.8743 33.462 29.2889L34.8811 27.8796ZM34.5586 25.1974L36.3276 26.1304C36.8195 25.1977 37.2228 24.2208 37.5322 23.2125L35.6201 22.6258L33.7081 22.0392C33.4721 22.8083 33.1646 23.5533 32.7895 24.2645L34.5586 25.1974ZM35.6201 22.6258L37.5316 23.2143C37.5644 23.1077 37.6235 23.0314 37.674 22.9906C37.7182 22.9549 37.7388 22.9573 37.7406 22.9573V20.9573V18.9573C35.7289 18.9573 34.2164 20.3881 33.7087 22.0374L35.6201 22.6258ZM37.7433 15.5661V17.5661C40.1334 17.5661 42.2863 15.3651 41.5619 12.7128L39.6326 13.2398L37.7032 13.7667C37.6981 13.748 37.6939 13.7082 37.7047 13.6617C37.7145 13.6194 37.7317 13.5925 37.7425 13.5795C37.7615 13.5567 37.7684 13.5661 37.7433 13.5661V15.5661ZM39.6326 13.2398L41.5604 12.7075C41.1036 11.0528 40.4448 9.46095 39.599 7.96795L37.8588 8.95379L36.1187 9.93962C36.8025 11.1467 37.3352 12.4339 37.7047 13.7721L39.6326 13.2398ZM37.8588 8.95379L39.5992 7.96838C38.2383 5.56481 35.1515 5.54522 33.4674 7.23441L34.8838 8.64649L36.3001 10.0586C36.3184 10.0402 36.3198 10.0527 36.2876 10.0497C36.2694 10.0481 36.2363 10.0407 36.1975 10.0164C36.155 9.98988 36.1286 9.95717 36.1184 9.93919L37.8588 8.95379ZM34.8838 8.64649L33.4674 7.23441C32.0537 8.65237 31.9838 10.7337 32.7934 12.2639L34.5613 11.3286L36.3291 10.3933C36.2792 10.299 36.2663 10.204 36.2735 10.1366C36.28 10.0766 36.298 10.0607 36.3001 10.0586L34.8838 8.64649ZM34.5613 11.3286L32.7936 12.2641C33.1653 12.9666 33.4713 13.707 33.7109 14.4873L35.6228 13.9002L37.5347 13.3131C37.2225 12.2964 36.8207 11.3223 36.329 10.3931L34.5613 11.3286ZM35.6228 13.9002L33.7113 14.4887C34.2202 16.1416 35.735 17.5661 37.7433 17.5661V15.5661V13.5661C37.7395 13.5661 37.7184 13.5677 37.675 13.5327C37.6253 13.4927 37.5669 13.4176 37.5343 13.3117L35.6228 13.9002ZM24.1848 1.96411H26.1848C26.1848 1.93254 26.1971 1.93696 26.1738 1.95646C26.1604 1.96758 26.1323 1.98583 26.0874 1.99629C26.0383 2.00776 25.9956 2.00351 25.9742 1.99763L26.5041 0.0691086L27.034 -1.85942C24.3693 -2.59159 22.1848 -0.414015 22.1848 1.96411H24.1848ZM26.5041 0.0691086L25.9694 1.9963C27.3032 2.36637 28.5864 2.90028 29.7899 3.58596L30.7799 1.8482L31.77 0.110446C30.2799 -0.738522 28.6908 -1.39972 27.0389 -1.85808L26.5041 0.0691086ZM30.7799 1.8482L29.79 3.58605C29.7707 3.57504 29.7382 3.54822 29.7124 3.50669C29.689 3.46894 29.6826 3.43795 29.6812 3.42274C29.6788 3.39722 29.6885 3.40417 29.6678 3.42499L31.0863 4.83492L32.5048 6.24485C34.1791 4.56039 34.1681 1.47644 31.7698 0.110356L30.7799 1.8482ZM31.0863 4.83492L29.67 3.42283C29.6671 3.42572 29.6638 3.42846 29.6561 3.43202C29.6473 3.43612 29.6287 3.44289 29.5985 3.44619C29.5333 3.45331 29.4419 3.44079 29.352 3.39291L28.4123 5.15839L27.4725 6.92387C29.0058 7.73997 31.0908 7.6631 32.5026 6.24701L31.0863 4.83492ZM28.4123 5.15839L29.3508 3.39227C28.4195 2.89737 27.4437 2.49153 26.4364 2.18015L25.8457 4.09094L25.255 6.00173C26.0218 6.23874 26.7646 6.54769 27.4737 6.92451L28.4123 5.15839ZM25.8457 4.09094L26.4374 2.18047C26.3366 2.14925 26.2625 2.09225 26.2215 2.04101C26.1853 1.99567 26.1848 1.97043 26.1848 1.96142H24.1848H22.1848C22.1848 3.96201 23.5954 5.48773 25.254 6.00141L25.8457 4.09094ZM18.8098 1.96142H16.8098C16.8098 1.96583 16.8109 1.98943 16.774 2.03537C16.7324 2.08718 16.6567 2.1454 16.5534 2.1773L17.1436 4.08824L17.7337 5.99918C19.39 5.48766 20.8098 3.96527 20.8098 1.96142H18.8098ZM17.1436 4.08824L16.5528 2.17748C15.5477 2.48824 14.574 2.89305 13.6445 3.38654L14.5824 5.153L15.5203 6.91946C16.228 6.54371 16.9692 6.23554 17.7343 5.999L17.1436 4.08824ZM14.5824 5.153L13.6427 3.38752C13.5522 3.43565 13.4615 3.44784 13.3973 3.44082C13.3402 3.43457 13.3246 3.41742 13.3219 3.41473L11.9083 4.82953L10.4947 6.24433C11.9072 7.65568 13.9868 7.73565 15.5221 6.91848L14.5824 5.153ZM11.9083 4.82953L13.3247 3.41744C13.3044 3.39714 13.3148 3.39173 13.3123 3.41853C13.3109 3.43413 13.3044 3.46502 13.2811 3.50237C13.2556 3.54344 13.2235 3.56987 13.2046 3.58065L12.2147 1.84281L11.2248 0.104965C8.83024 1.46893 8.80867 4.55324 10.492 6.24161L11.9083 4.82953ZM12.2147 1.84281L13.204 3.58097C14.4069 2.89631 15.6893 2.36322 17.0221 1.99372L16.4878 0.0664129L15.9535 -1.8609C14.3027 -1.40325 12.7147 -0.74306 11.2253 0.104651L12.2147 1.84281ZM16.4878 0.0664129L17.0206 1.99414C16.9998 1.99988 16.9571 2.00433 16.9075 1.9928C16.8623 1.98227 16.8338 1.96385 16.8204 1.95265C16.7971 1.93323 16.8098 1.92939 16.8098 1.96142H18.8098H20.8098C20.8098 -0.414002 18.6266 -2.5997 15.955 -1.86131L16.4878 0.0664129ZM5.12237 8.9484L6.86277 9.9338C6.8526 9.95177 6.82616 9.98461 6.78341 10.0113C6.74436 10.0357 6.71102 10.0431 6.69262 10.0448C6.6598 10.0478 6.66284 10.0349 6.68379 10.0559L8.10013 8.6438L9.51646 7.23171C7.83177 5.54194 4.74425 5.55698 3.38198 7.96299L5.12237 8.9484ZM8.10013 8.6438L6.68379 10.0559C6.68443 10.0565 6.70282 10.0721 6.70948 10.1333C6.71688 10.2014 6.70397 10.2974 6.65363 10.3928L8.42262 11.3259L10.1916 12.259C11.0001 10.7262 10.9266 8.64612 9.51646 7.23171L8.10013 8.6438ZM8.42262 11.3259L6.65653 10.3873C6.16197 11.3179 5.75871 12.2943 5.44616 13.3142L7.35838 13.9002L9.27059 14.4862C9.50987 13.7055 9.81611 12.9656 10.1887 12.2645L8.42262 11.3259ZM7.35838 13.9002L5.4469 13.3117C5.41486 13.4158 5.35679 13.491 5.30627 13.5316C5.26175 13.5674 5.23944 13.5661 5.23525 13.5661V15.5661V17.5661C7.24073 17.5661 8.76006 16.1446 9.26985 14.4887L7.35838 13.9002ZM5.23525 15.5661V13.5661C5.21218 13.5661 5.21885 13.5572 5.23736 13.5795C5.24811 13.5925 5.26557 13.6197 5.27556 13.6628C5.28653 13.7102 5.28227 13.7511 5.27687 13.7707L3.34862 13.2398L1.42038 12.7089C0.688639 15.3665 2.85098 17.5661 5.23525 17.5661V15.5661ZM3.34862 13.2398L5.27679 13.771C5.64591 12.4311 6.17865 11.1423 6.86283 9.93369L5.12237 8.9484L3.38191 7.9631C2.53565 9.45798 1.87686 11.0519 1.42046 12.7086L3.34862 13.2398ZM5.24062 20.9573V18.9573C2.85228 18.9573 0.691673 21.1608 1.42307 23.8172L3.35131 23.2863L5.27955 22.7553C5.285 22.7751 5.28917 22.8158 5.27831 22.8627C5.26844 22.9054 5.25122 22.9321 5.24077 22.9447C5.22275 22.9664 5.21665 22.9573 5.24062 22.9573V20.9573ZM3.35131 23.2863L1.42314 23.8175C1.87955 25.4742 2.53834 27.0681 3.3846 28.5629L5.12506 27.5777L6.86552 26.5924C6.18134 25.3838 5.6486 24.0949 5.27948 22.7551L3.35131 23.2863ZM5.12506 27.5777L3.38571 28.5649C4.74864 30.9661 7.83312 30.9803 9.51701 29.2965L8.10281 27.8823L6.68862 26.468C6.66825 26.4884 6.66453 26.4764 6.69531 26.4792C6.71283 26.4808 6.74558 26.4879 6.78438 26.5121C6.82691 26.5386 6.85373 26.5716 6.86441 26.5904L5.12506 27.5777ZM8.10281 27.8823L9.51915 29.2943C10.9288 27.8805 11.0038 25.797 10.1931 24.2648L8.42531 25.2001L6.65749 26.1355C6.70628 26.2277 6.71967 26.3226 6.71215 26.3919C6.70865 26.424 6.70143 26.4443 6.69675 26.4545C6.69262 26.4634 6.68938 26.4673 6.68647 26.4702L8.10281 27.8823ZM8.42531 25.2001L10.1929 24.2644C9.81611 23.5526 9.50699 22.8068 9.26966 22.0368L7.35838 22.6258L5.44709 23.2149C5.75824 24.2245 6.16357 25.2025 6.65773 26.1359L8.42531 25.2001ZM7.35838 22.6258L9.27286 22.0473C8.77001 20.3833 7.24427 18.9573 5.24062 18.9573V20.9573V22.9573C5.24095 22.9573 5.26257 22.9549 5.30756 22.9912C5.35815 23.032 5.41406 23.1057 5.44389 23.2044L7.35838 22.6258ZM36.9531 34.4352V36.4352C38.0242 36.4352 39.0526 36.8618 39.8119 37.6231L41.228 36.2107L42.644 34.7983C41.1355 33.2859 39.0886 32.4352 36.9531 32.4352V34.4352ZM41.228 36.2107L39.8119 37.6231C40.5715 38.3846 40.9995 39.4188 41 40.4985L43 40.4976L45 40.4967C44.9991 38.3603 44.1523 36.3105 42.644 34.7983L41.228 36.2107ZM43 40.4976H41V42.0476H43H45V40.4976H43ZM43 42.0476H41C41 43.9846 40.3095 45.8553 39.0554 47.3228L40.5759 48.6222L42.0963 49.9215C43.9705 47.7284 45 44.9357 45 42.0476H43ZM40.5759 48.6222L39.055 47.3234C35.33 51.6854 29.5618 54 21.4893 54V56V58C30.3265 58 37.383 55.4409 42.0968 49.9209L40.5759 48.6222ZM21.4893 56V54C13.4192 54 7.65028 51.6827 3.93662 47.318L2.41337 48.6141L0.89013 49.9101C5.59372 55.4383 12.6549 58 21.4893 58V56ZM2.41337 48.6141L3.93637 47.3177C2.68749 45.8505 2.00045 43.9837 2 42.0525L0 42.053L-2 42.0535C-1.99933 44.9331 -0.974972 47.7189 0.890381 49.9104L2.41337 48.6141ZM0 42.053H2V40.4949H0H-2V42.053H0ZM0 40.4949L2 40.4967C2.00096 39.4176 2.42895 38.3842 3.18806 37.6231L1.77204 36.2107L0.356012 34.7983C-1.15142 36.3096 -1.99811 38.358 -2 40.4932L0 40.4949ZM1.77204 36.2107L3.18806 37.6231C3.94697 36.8623 4.97466 36.4357 6.04508 36.4352L6.04419 34.4352L6.0433 32.4352C3.90905 32.4362 1.86365 33.2868 0.356012 34.7983L1.77204 36.2107ZM6.04419 34.4352V36.4352H36.9531V34.4352V32.4352H6.04419V34.4352ZM36.9531 38.4786V36.4786H6.04688V38.4786V40.4786H36.9531V38.4786ZM6.04688 38.4786L6.04688 36.4786C4.98085 36.4786 3.95962 36.9031 3.20717 37.6568L4.62256 39.0698L6.03796 40.4829C6.04135 40.4795 6.04468 40.4786 6.04687 40.4786L6.04688 38.4786ZM4.62256 39.0698L3.20717 37.6568C2.45491 38.4103 2.03267 39.4312 2.03125 40.495L4.03125 40.4976L6.03125 40.5003C6.03126 40.4926 6.03436 40.4865 6.03796 40.4829L4.62256 39.0698ZM4.03125 40.4976H2.03125V42.0557H4.03125H6.03125V40.4976H4.03125ZM4.03125 42.0557H2.03125C2.03125 43.9748 2.71763 45.8308 3.96048 47.2887L5.4825 45.9913L7.00452 44.6938C6.37686 43.9575 6.03125 43.0208 6.03125 42.0557H4.03125ZM5.4825 45.9913L3.95936 47.2874C7.83688 51.844 13.7858 53.9593 21.4919 53.9593V51.9593V49.9593C14.4867 49.9593 9.863 48.0528 7.00564 44.6951L5.4825 45.9913ZM21.4919 51.9593V53.9593C29.2042 53.9593 35.151 51.8436 39.0386 47.2898L37.5175 45.9913L35.9964 44.6927C33.1276 48.0532 28.5018 49.9593 21.4919 49.9593V51.9593ZM37.5175 45.9913L39.0394 47.2888C40.2856 45.8273 40.9693 43.9682 40.9688 42.047L38.9688 42.0476L36.9688 42.0482C36.969 43.0191 36.6234 43.9573 35.9956 44.6937L37.5175 45.9913ZM38.9688 42.0476H40.9688V40.4976H38.9688H36.9688V42.0476H38.9688ZM38.9688 40.4976L40.9688 40.495C40.9673 39.4331 40.5466 38.4138 39.7966 37.6606L38.3793 39.0717L36.9621 40.4829C36.9656 40.4865 36.9687 40.4926 36.9688 40.5003L38.9688 40.4976ZM38.3793 39.0717L39.7966 37.6606C39.0465 36.9072 38.028 36.4815 36.9639 36.4786L36.9585 38.4786L36.9532 40.4786C36.9554 40.4786 36.9587 40.4795 36.9621 40.4829L38.3793 39.0717ZM14.7705 18.2617H16.7705C16.7705 17.0029 17.2691 15.7969 18.1547 14.9086L16.7384 13.4965L15.322 12.0844C13.6876 13.7237 12.7705 15.9459 12.7705 18.2617H14.7705ZM16.7384 13.4965L18.1547 14.9086C19.0401 14.0205 20.2397 13.5227 21.4893 13.5227V11.5227V9.52269C19.1749 9.52269 16.9567 10.4449 15.322 12.0844L16.7384 13.4965ZM21.4893 11.5227V13.5227C22.7388 13.5227 23.9384 14.0205 24.8238 14.9086L26.2401 13.4965L27.6565 12.0844C26.0218 10.4449 23.8036 9.52269 21.4893 9.52269V11.5227ZM26.2401 13.4965L24.8238 14.9086C25.7094 15.7969 26.208 17.0029 26.208 18.2617H28.208H30.208C30.208 15.9459 29.2909 13.7237 27.6565 12.0844L26.2401 13.4965ZM28.208 18.2617H26.208C26.208 19.5205 25.7094 20.7265 24.8238 21.6148L26.2401 23.0269L27.6565 24.4389C29.2909 22.7996 30.208 20.5775 30.208 18.2617H28.208ZM26.2401 23.0269L24.8238 21.6148C23.9384 22.5028 22.7388 23.0007 21.4893 23.0007V25.0007V27.0007C23.8036 27.0007 26.0218 26.0785 27.6565 24.4389L26.2401 23.0269ZM21.4893 25.0007V23.0007C20.2397 23.0007 19.0401 22.5028 18.1547 21.6148L16.7384 23.0269L15.322 24.4389C16.9567 26.0785 19.1749 27.0007 21.4893 27.0007V25.0007ZM16.7384 23.0269L18.1547 21.6148C17.2691 20.7265 16.7705 19.5205 16.7705 18.2617H14.7705H12.7705C12.7705 20.5775 13.6876 22.7996 15.322 24.4389L16.7384 23.0269ZM21.4893 7.4793V5.4793C18.1058 5.4793 14.8621 6.82747 12.4715 9.2253L13.8879 10.6374L15.3042 12.0495C16.9456 10.4031 19.1705 9.4793 21.4893 9.4793V7.4793ZM13.8879 10.6374L12.4715 9.2253C10.0811 11.6229 8.73925 14.8735 8.73925 18.2617H10.7392H12.7392C12.7392 15.9305 13.6626 13.696 15.3042 12.0495L13.8879 10.6374ZM10.7392 18.2617H8.73925C8.73925 21.6498 10.0811 24.9004 12.4715 27.2981L13.8879 25.886L15.3042 24.4739C13.6626 22.8273 12.7392 20.5928 12.7392 18.2617H10.7392ZM13.8879 25.886L12.4715 27.2981C14.8621 29.6959 18.1058 31.0441 21.4893 31.0441V29.0441V27.0441C19.1705 27.0441 16.9456 26.1202 15.3042 24.4739L13.8879 25.886ZM21.4893 29.0441V31.0441C24.8727 31.0441 28.1164 29.6959 30.507 27.2981L29.0906 25.886L27.6743 24.4739C26.0329 26.1202 23.8079 27.0441 21.4893 27.0441V29.0441ZM29.0906 25.886L30.507 27.2981C32.8974 24.9004 34.2393 21.6498 34.2393 18.2617H32.2393H30.2393C30.2393 20.5928 29.3159 22.8273 27.6743 24.4739L29.0906 25.886ZM32.2393 18.2617H34.2393C34.2393 14.8735 32.8974 11.6229 30.507 9.2253L29.0906 10.6374L27.6743 12.0495C29.3159 13.696 30.2393 15.9305 30.2393 18.2617H32.2393ZM29.0906 10.6374L30.507 9.2253C28.1164 6.82747 24.8727 5.4793 21.4893 5.4793V7.4793V9.4793C23.808 9.4793 26.0329 10.4031 27.6743 12.0495L29.0906 10.6374Z" fill="black" mask="url(#path-1-inside-1_542_800)"/>
</svg>
