<svg width="82" height="70" viewBox="0 0 82 70" fill="none" xmlns="http://www.w3.org/2000/svg">
<rect width="82" height="70" rx="20" fill="black"/>
<path d="M59.2 56L46.6 43.4C45.6 44.2 44.45 44.8333 43.15 45.3C41.85 45.7667 40.4667 46 39 46C35.3667 46 32.292 44.7413 29.776 42.224C27.26 39.7067 26.0013 36.632 26 33C25.9987 29.368 27.2573 26.2933 29.776 23.776C32.2947 21.2587 35.3693 20 39 20C42.6307 20 45.706 21.2587 48.226 23.776C50.746 26.2933 52.004 29.368 52 33C52 34.4667 51.7667 35.85 51.3 37.15C50.8333 38.45 50.2 39.6 49.4 40.6L62 53.2L59.2 56ZM39 42C41.5 42 43.6253 41.1253 45.376 39.376C47.1267 37.6267 48.0013 35.5013 48 33C47.9987 30.4987 47.124 28.374 45.376 26.626C43.628 24.878 41.5027 24.0027 39 24C36.4973 23.9973 34.3727 24.8727 32.626 26.626C30.8793 28.3793 30.004 30.504 30 33C29.996 35.496 30.8713 37.6213 32.626 39.376C34.3807 41.1307 36.5053 42.0053 39 42Z" fill="white"/>
</svg>
