<svg width="11" height="8" viewBox="0 0 11 8" fill="none" xmlns="http://www.w3.org/2000/svg">
<path d="M4.61714 0.281945C4.67078 0.197324 4.75382 0.126066 4.85686 0.0762375C4.95991 0.026409 5.07884 0 5.20019 0C5.32154 0 5.44047 0.026409 5.54351 0.0762375C5.64655 0.126066 5.7296 0.197324 5.78324 0.281945L7.03774 2.25769L9.84379 2.57502C9.96384 2.58858 10.0766 2.62798 10.1694 2.68877C10.2621 2.74956 10.3311 2.82932 10.3686 2.91902C10.4061 3.00871 10.4105 3.10477 10.3814 3.19633C10.3523 3.28788 10.2908 3.37127 10.2039 3.43708L8.17329 4.97523L8.65299 7.14804C8.67347 7.24097 8.6601 7.3365 8.61439 7.42382C8.56868 7.51115 8.49246 7.5868 8.39433 7.64221C8.29621 7.69762 8.1801 7.73058 8.05914 7.73737C7.93818 7.74416 7.81718 7.72451 7.70984 7.68063L5.20084 6.65486L2.69054 7.68063C2.58316 7.72441 2.46217 7.74397 2.34124 7.7371C2.22031 7.73022 2.10427 7.69719 2.00622 7.64173C1.90818 7.58628 1.83204 7.51061 1.78642 7.42328C1.74079 7.33595 1.7275 7.24043 1.74804 7.14754L2.22709 4.97523L0.196488 3.43708C0.109581 3.37127 0.048096 3.28788 0.0189879 3.19633C-0.0101201 3.10477 -0.00568902 3.00871 0.03178 2.91902C0.0692489 2.82932 0.13826 2.74956 0.231007 2.68877C0.323754 2.62798 0.436534 2.58858 0.556589 2.57502L3.36264 2.2582L4.61714 0.281945Z" fill="#FFE014"/>
</svg>
