<svg width="33" height="38" viewBox="0 0 33 38" fill="none" xmlns="http://www.w3.org/2000/svg">
<path d="M5.27635 35.4723C2.7278 35.4723 0.655762 33.3949 0.655762 30.8397V7.67659C0.655762 5.12141 2.7278 3.04398 5.27635 3.04398H28.3793C30.9278 3.04398 32.9998 5.12141 32.9998 7.67659V30.8397C32.9998 33.3949 30.9278 35.4723 28.3793 35.4723H5.27635ZM26.726 29.392L19.232 20.8072L28.0472 9.12428H21.1452L15.7449 16.2107L9.5576 9.12428H6.12827L14.1421 18.3099L5.68787 29.392H12.7631L17.6508 22.9136L23.2966 29.392H26.726ZM23.9969 11.18L11.7307 27.4448H9.68756L22.0909 11.18H23.9897H23.9969Z" fill="white"/>
</svg>
