<svg width="49" height="35" viewBox="0 0 49 35" fill="none" xmlns="http://www.w3.org/2000/svg">
<path d="M19.5467 25.0617L32.0983 17.7827L19.5467 10.5037V25.0617ZM47.5037 6.06348C47.8181 7.20386 48.0357 8.73245 48.1808 10.6735C48.3501 12.6146 48.4227 14.2888 48.4227 15.7446L48.5678 17.7827C48.5678 23.0963 48.1808 27.0027 47.5037 29.5019C46.8991 31.6856 45.4964 33.0928 43.3198 33.6994C42.1831 34.0148 40.1033 34.2332 36.911 34.3788C33.767 34.5486 30.8891 34.6214 28.2288 34.6214L24.3836 34.767C14.2504 34.767 7.93829 34.3788 5.44732 33.6994C3.27074 33.0928 1.86805 31.6856 1.26345 29.5019C0.949052 28.3615 0.731394 26.8329 0.586289 24.8918C0.416999 22.9508 0.344446 21.2766 0.344446 19.8208L0.199341 17.7827C0.199341 12.469 0.586288 8.56261 1.26345 6.06348C1.86805 3.87978 3.27074 2.47251 5.44732 1.86593C6.58397 1.5505 8.66382 1.33213 11.8561 1.18655C15.0001 1.01671 17.878 0.94392 20.5383 0.94392L24.3836 0.79834C34.5167 0.79834 40.8288 1.18655 43.3198 1.86593C45.4964 2.47251 46.8991 3.87978 47.5037 6.06348Z" fill="white"/>
</svg>
